# File produced by Open Asset Import Library (http://www.assimp.sf.net)
# (assimp v3.1.6393133)

mtllib ftilemissing.mtl

# vertex positions
v 3.745985 0.000000 5.758254
v 3.745985 0.000000 6.008254
v 3.745985 0.000000 6.258254
v 3.745985 0.000000 6.508254
v 3.745985 0.000000 6.758254
v 3.745985 0.000000 7.008254
v 3.745985 0.000000 7.258254
v 3.745985 0.000000 7.508254
v 3.745985 0.000000 7.758254
v 3.995985 0.000000 7.758254
v 4.245985 0.000000 7.758254
v 4.495985 0.000000 7.758254
v 4.745985 0.000000 7.758254
v 4.995985 0.000000 7.758254
v 5.245985 0.000000 7.758254
v 5.495985 0.000000 7.758254
v 5.745985 0.000000 7.758254
v 5.995985 0.000000 7.758254
v 6.245985 0.000000 7.758254
v 6.495985 0.000000 7.758254
v 6.745985 0.000000 7.758254
v 6.995985 0.000000 7.758254
v 7.245985 0.000000 7.758254
v 7.495985 0.000000 7.758254
v 7.745985 0.000000 7.758254
v 7.745985 0.000000 7.508254
v 7.745985 0.000000 7.258254
v 7.745985 0.000000 7.008254
v 7.745985 0.000000 6.758254
v 7.745985 0.000000 6.508254
v 7.745985 0.000000 6.258254
v 7.745985 0.000000 6.008254
v 7.745985 0.000000 5.758254
v 7.745985 0.000000 5.508254
v 7.745985 0.000000 5.258254
v 7.745985 0.000000 5.008254
v 7.745985 0.000000 4.758254
v 7.745985 0.000000 4.508254
v 7.745985 0.000000 4.258254
v 7.745985 0.000000 4.008254
v 7.745985 0.000000 3.758254
v 7.495985 0.000000 3.758254
v 7.245985 0.000000 3.758254
v 6.995985 0.000000 3.758254
v 6.745985 0.000000 3.758254
v 6.495985 0.000000 3.758254
v 6.245985 0.000000 3.758254
v 5.995985 0.000000 3.758254
v 5.745985 0.000000 3.758254
v 5.495985 0.000000 3.758254
v 5.245985 0.000000 3.758254
v 4.995985 0.000000 3.758254
v 4.745985 0.000000 3.758254
v 4.495985 0.000000 3.758254
v 4.245985 0.000000 3.758254
v 3.995985 0.000000 3.758254
v 3.745985 0.000000 3.758254
v 3.745985 0.000000 4.008254
v 3.745985 0.000000 4.258254
v 3.745985 0.000000 4.508254
v 3.745985 0.000000 4.758254
v 3.745985 0.000000 5.008254
v 3.745985 0.000000 5.258254
v 3.745985 0.000000 5.508254
v 6.011751 0.103113 7.710672
v 5.793567 0.103113 6.024020
v 5.737960 0.003808 5.981153
v 5.968883 0.003808 7.766278
v 7.698402 0.103113 7.492487
v 7.754009 0.003808 7.535356
v 7.480218 0.103113 5.805835
v 7.523086 0.003808 5.750229
v 3.808812 0.103113 5.511849
v 3.992388 0.103113 3.821081
v 3.948390 0.003808 3.766365
v 3.754096 0.003808 5.555848
v 5.499580 0.103113 5.695426
v 5.543579 0.003808 5.750142
v 5.683157 0.103113 4.004657
v 5.737874 0.003808 3.960659
v 3.911736 0.103113 7.624412
v 3.879827 0.103113 5.924006
v 3.829257 0.003808 5.875299
v 3.863029 0.003808 7.674982
v 5.612142 0.103113 7.592502
v 5.662712 0.003808 7.641209
v 5.580233 0.103113 5.892097
v 5.628940 0.003808 5.841527

# UV coordinates
vt 0.282542 0.554958
vt 0.248485 0.554963
vt 0.214427 0.554968
vt 0.180370 0.554973
vt 0.146313 0.554979
vt 0.112256 0.554984
vt 0.078199 0.554989
vt 0.044141 0.554994
vt 0.010084 0.555000
vt 0.010079 0.520942
vt 0.010074 0.486885
vt 0.010068 0.452828
vt 0.010063 0.418771
vt 0.010058 0.384714
vt 0.010053 0.350656
vt 0.010047 0.316599
vt 0.010042 0.282542
vt 0.010037 0.248485
vt 0.010032 0.214427
vt 0.010026 0.180370
vt 0.010021 0.146313
vt 0.010016 0.112256
vt 0.010011 0.078199
vt 0.010005 0.044141
vt 0.010000 0.010084
vt 0.044057 0.010079
vt 0.078114 0.010074
vt 0.112172 0.010068
vt 0.146229 0.010063
vt 0.180286 0.010058
vt 0.214343 0.010053
vt 0.248401 0.010047
vt 0.282458 0.010042
vt 0.316515 0.010037
vt 0.350572 0.010032
vt 0.384629 0.010026
vt 0.418687 0.010021
vt 0.452744 0.010016
vt 0.486801 0.010011
vt 0.520858 0.010005
vt 0.554916 0.010000
vt 0.554921 0.044057
vt 0.554926 0.078114
vt 0.554931 0.112172
vt 0.554937 0.146229
vt 0.554942 0.180286
vt 0.554947 0.214343
vt 0.554952 0.248401
vt 0.554958 0.282458
vt 0.554963 0.316515
vt 0.554968 0.350572
vt 0.554973 0.384629
vt 0.554979 0.418687
vt 0.554984 0.452744
vt 0.554989 0.486801
vt 0.554994 0.520858
vt 0.555000 0.554916
vt 0.520942 0.554921
vt 0.486885 0.554926
vt 0.452828 0.554931
vt 0.418771 0.554937
vt 0.384714 0.554942
vt 0.350656 0.554947
vt 0.316599 0.554952
vt 0.526211 0.878868
vt 0.737719 0.973432
vt 0.737720 0.990000
vt 0.513863 0.889915
vt 0.282056 0.929484
vt 0.493545 0.834877
vt 0.505895 0.845922
vt 0.282059 0.946052
vt 0.070542 0.834933
vt 0.058196 0.845981
vt 0.949213 0.878839
vt 0.961563 0.889884
vt 0.070546 0.803768
vt 0.282030 0.898386
vt 0.282027 0.914954
vt 0.058196 0.814812
vt 0.737723 0.911280
vt 0.949213 0.816676
vt 0.961563 0.827721
vt 0.737725 0.927848
vt 0.526210 0.816727
vt 0.513863 0.827774
vt 0.493549 0.803847
vt 0.505896 0.814895
vt 0.070543 0.865964
vt 0.282052 0.960526
vt 0.282053 0.977094
vt 0.058196 0.877011
vt 0.737703 0.942361
vt 0.949216 0.847807
vt 0.961563 0.858855
vt 0.737701 0.958929
vt 0.526213 0.847758
vt 0.513863 0.858803
vt 0.493546 0.865931
vt 0.505895 0.876976
vt 0.321356 0.795466
vt 0.321081 0.563781
vt 0.552766 0.563505
vt 0.553041 0.795190
vt 0.080103 0.795263
vt 0.080103 0.563578
vt 0.311788 0.563578
vt 0.311788 0.795263
vt 0.562084 0.795189
vt 0.562058 0.563504
vt 0.793744 0.563478
vt 0.793769 0.795163

# vertex normals
vn 0.000000 1.000000 0.000000
vn -0.887054 0.447178 0.114749
vn -0.887054 0.447178 0.114749
vn -0.887054 0.447178 0.114749
vn 0.114749 0.447178 0.887054
vn 0.114749 0.447178 0.887054
vn 0.114749 0.447178 0.887054
vn 0.887054 0.447178 -0.114749
vn 0.887054 0.447178 -0.114749
vn 0.887054 0.447178 -0.114749
vn 0.887054 0.447178 -0.114749
vn -0.114749 0.447177 -0.887055
vn -0.114749 0.447177 -0.887055
vn -0.889220 0.447177 -0.096548
vn -0.889220 0.447177 -0.096548
vn -0.889220 0.447177 -0.096548
vn -0.889220 0.447177 -0.096548
vn -0.096547 0.447178 0.889219
vn -0.096547 0.447178 0.889219
vn -0.096547 0.447178 0.889219
vn 0.889219 0.447178 0.096548
vn 0.889219 0.447178 0.096548
vn 0.889219 0.447178 0.096548
vn 0.889219 0.447178 0.096548
vn 0.096548 0.447177 -0.889219
vn 0.096548 0.447177 -0.889219
vn 0.096548 0.447177 -0.889219
vn 0.096548 0.447177 -0.889219
vn -0.894288 0.447178 0.016782
vn -0.894288 0.447178 0.016782
vn 0.016782 0.447176 0.894288
vn 0.016782 0.447176 0.894288
vn 0.016782 0.447176 0.894288
vn 0.016782 0.447176 0.894288
vn 0.894288 0.447178 -0.016782
vn 0.894288 0.447178 -0.016782
vn 0.894288 0.447178 -0.016782
vn -0.016781 0.447176 -0.894288
vn -0.016781 0.447176 -0.894288
vn -0.016781 0.447176 -0.894288
vn -0.016781 0.447176 -0.894288
vn 0.000000 1.000000 0.000000
vn 0.000000 1.000000 -0.000000
vn 0.000000 1.000000 0.000000
vn 0.000000 1.000000 0.000000
vn 0.000000 1.000000 0.000000

# Mesh
g floortilemissing01_low
usemtl lambert1
f 25/25/1 26/26/1 27/27/1 28/28/1 29/29/1 30/30/1 31/31/1 32/32/1 33/33/1 34/34/1 35/35/1 36/36/1 37/37/1 38/38/1 39/39/1 40/40/1 41/41/1 42/42/1 43/43/1 44/44/1 45/45/1 46/46/1 47/47/1 48/48/1 49/49/1 50/50/1 51/51/1 52/52/1 53/53/1 54/54/1 55/55/1 56/56/1 57/57/1 58/58/1 59/59/1 60/60/1 61/61/1 62/62/1 63/63/1 64/64/1 1/1/1 2/2/1 3/3/1 4/4/1 5/5/1 6/6/1 7/7/1 8/8/1 9/9/1 10/10/1 11/11/1 12/12/1 13/13/1 14/14/1 15/15/1 16/16/1 17/17/1 18/18/1 19/19/1 20/20/1 21/21/1 22/22/1 23/23/1 24/24/1
f 68/68/4 65/65/2 66/66/3 67/67/4
f 70/72/7 69/69/5 65/70/6 68/71/6
f 69/69/9 70/72/10 72/74/11 71/73/8
f 71/75/13 72/76/13 67/67/13 66/66/12
f 74/78/15 75/79/16 76/80/17 73/77/14
f 78/84/19 77/81/18 73/82/19 76/83/20
f 80/86/24 79/85/21 77/81/22 78/84/23
f 79/87/26 80/88/27 75/79/28 74/78/25
f 81/89/29 82/90/29 83/91/30 84/92/30
f 86/96/34 85/93/31 81/94/32 84/95/33
f 86/96/36 88/98/37 87/97/35 85/93/35
f 87/99/39 88/100/40 83/91/41 82/90/38
f 69/102/42 71/103/42 66/104/42 65/101/42
f 77/106/43 79/107/43 74/108/43 73/105/43
f 85/110/45 87/111/46 82/112/44 81/109/44
