# File produced by Open Asset Import Library (http://www.assimp.sf.net)
# (assimp v3.1.6393133)

mtllib leaf.mtl

# vertex positions
v -0.029100 -0.027335 0.405779
v -0.303247 0.000000 0.303895
v -0.029100 -0.034493 0.481182
v 0.029100 -0.034493 0.481182
v 0.303247 0.000000 0.303895
v 0.029100 -0.027335 0.405779
v -0.510222 0.039546 -0.039187
v -0.048962 0.005053 0.222249
v -0.052756 0.024049 -0.033066
v -0.549760 0.058542 -0.344570
v 0.048962 0.005053 0.222249
v 0.510222 0.039546 -0.039187
v 0.549760 0.058542 -0.344570
v 0.052756 0.024049 -0.033066
v -0.042559 -0.006494 -0.364434
v -0.443504 0.027999 -0.588675
v 0.443503 0.027999 -0.588675
v 0.042559 -0.006494 -0.364434
v -0.186912 0.000000 -0.908369
v -0.017936 -0.026050 -0.796220
v -0.017936 -0.034493 -1.130747
v 0.017936 -0.026050 -0.796221
v 0.186913 -0.000000 -0.908369
v 0.017936 -0.034493 -1.130747
v -0.027715 -0.013056 -0.606590
v -0.288817 0.021437 -0.765358
v 0.288817 0.021437 -0.765358
v 0.027715 -0.013056 -0.606590
v 0.000000 -0.030237 0.416594
v 0.000000 -0.038154 0.500000
v 0.000000 0.001392 0.250000
v 0.000000 0.020388 0.000000
v 0.000000 -0.010155 -0.340631
v 0.000000 -0.016717 -0.589737
v 0.000000 -0.028815 -0.784316
v 0.000000 -0.038154 -1.154352
v 0.000000 -0.038154 0.514497
v 0.029100 -0.034493 0.495678
v -0.029100 -0.034493 0.495678
v -0.029100 -0.034493 0.596357
v 0.000000 -0.038154 0.615175
v 0.029100 -0.034493 0.596357
v -0.029100 -0.034493 0.757015
v 0.000000 -0.038154 0.775833
v 0.029100 -0.034493 0.757015
v -0.029100 -0.034493 0.895167
v 0.000000 -0.038154 0.913985
v 0.029100 -0.034493 0.895167

# UV coordinates
vt 0.446662 0.246462
vt 0.292903 0.235696
vt 0.464666 0.211551
vt 0.491225 0.224715
vt 0.574838 0.378805
vt 0.474446 0.260441
vt 0.116035 0.344332
vt 0.393047 0.330868
vt 0.328863 0.451367
vt 0.022707 0.473996
vt 0.438903 0.354098
vt 0.588745 0.588567
vt 0.536478 0.739528
vt 0.378495 0.476701
vt 0.252293 0.610723
vt 0.011247 0.615288
vt 0.427782 0.830558
vt 0.292344 0.631374
vt 0.053873 0.829360
vt 0.158748 0.819514
vt 0.080395 0.974644
vt 0.175889 0.828373
vt 0.228524 0.919604
vt 0.093822 0.982895
vt 0.200183 0.727965
vt 0.040282 0.736253
vt 0.312329 0.876878
vt 0.226644 0.741638
vt 0.463190 0.248145
vt 0.482528 0.208885
vt 0.422731 0.329123
vt 0.361730 0.448430
vt 0.278063 0.609972
vt 0.217464 0.726976
vt 0.170172 0.818422
vt 0.080167 0.976022
vt 0.081736 0.989588
vt 0.485899 0.201960
vt 0.495010 0.217451
vt 0.468084 0.204181
vt 0.491201 0.155836
vt 0.509342 0.154244
vt 0.519169 0.169576
vt 0.528286 0.079995
vt 0.546755 0.078100
vt 0.556541 0.093878
vt 0.545916 0.079807
vt 0.560813 0.014579
vt 0.576885 0.016778
vt 0.588446 0.028156

# vertex normals
vn 0.025966 0.991619 0.126564
vn 0.021406 0.991787 0.126094
vn 0.065664 0.993612 0.091778
vn -0.065664 0.993612 0.091778
vn -0.021406 0.991787 0.126094
vn -0.025966 0.991619 0.126564
vn 0.031464 0.996872 0.072502
vn 0.025666 0.994759 0.098969
vn 0.069154 0.997577 0.007551
vn 0.095768 0.994789 -0.034983
vn -0.025666 0.994759 0.098969
vn -0.031464 0.996872 0.072502
vn -0.095768 0.994789 -0.034983
vn -0.069154 0.997577 0.007551
vn 0.118065 0.991307 -0.058062
vn 0.115024 0.992157 -0.048925
vn -0.115025 0.992157 -0.048925
vn -0.118065 0.991307 -0.058062
vn 0.167814 0.985090 -0.037896
vn 0.168036 0.984975 -0.039858
vn 0.168420 0.985401 -0.024869
vn -0.168036 0.984975 -0.039858
vn -0.167814 0.985090 -0.037896
vn -0.168419 0.985402 -0.024869
vn 0.115965 0.993236 -0.005883
vn 0.119603 0.992791 -0.007786
vn -0.119603 0.992791 -0.007786
vn -0.115965 0.993236 -0.005883
vn 0.000000 0.988706 0.149869
vn 0.000000 0.997690 0.067926
vn 0.000000 0.991667 0.128830
vn -0.000000 0.999912 0.013231
vn -0.000000 0.997232 -0.074351
vn -0.000000 0.999530 -0.030654
vn 0.000000 0.998914 -0.046597
vn -0.000000 0.999682 -0.025230
vn 0.000000 1.000000 0.000000
vn -0.124835 0.992177 0.000000
vn 0.124835 0.992177 0.000000
vn 0.124835 0.992177 0.000000
vn 0.000000 1.000000 -0.000000
vn -0.124835 0.992177 -0.000000
vn 0.124835 0.992177 0.000000
vn -0.000000 1.000000 -0.000000
vn -0.124835 0.992177 -0.000000
vn 0.124835 0.992177 0.000000
vn -0.000000 1.000000 0.000000
vn -0.124835 0.992177 0.000000

# Mesh
g leaf_low
usemtl lambert1
f 1/1/1 2/2/2 3/3/3
f 4/4/4 5/5/5 6/6/6
f 8/8/8 9/9/9 10/10/10 7/7/7
f 12/12/12 13/13/13 14/14/14 11/11/11
f 9/9/9 15/15/15 16/16/16 10/10/10
f 13/13/13 17/17/17 18/18/18 14/14/14
f 19/19/19 20/20/20 21/21/21
f 22/22/22 23/23/23 24/24/24
f 15/15/15 25/25/25 26/26/26 16/16/16
f 17/17/17 27/27/27 28/28/28 18/18/18
f 25/25/25 20/20/20 19/19/19 26/26/26
f 27/27/27 23/23/23 22/22/22 28/28/28
f 5/5/5 12/12/12 11/11/11 6/6/6
f 1/1/1 8/8/8 7/7/7 2/2/2
f 30/30/30 29/29/29 1/1/1 3/3/3
f 29/29/29 31/31/31 8/8/8 1/1/1
f 31/31/31 32/32/32 9/9/9 8/8/8
f 32/32/32 33/33/33 15/15/15 9/9/9
f 33/33/33 34/34/34 25/25/25 15/15/15
f 34/34/34 35/35/35 20/20/20 25/25/25
f 35/35/35 36/37/36 21/36/21 20/20/20
f 22/22/22 24/24/24 36/37/36 35/35/35
f 28/28/28 22/22/22 35/35/35 34/34/34
f 18/18/18 28/28/28 34/34/34 33/33/33
f 14/14/14 18/18/18 33/33/33 32/32/32
f 11/11/11 14/14/14 32/32/32 31/31/31
f 6/6/6 11/11/11 31/31/31 29/29/29
f 4/4/4 6/6/6 29/29/29 30/30/30
f 38/39/38 4/4/4 30/30/30 37/38/37
f 37/38/37 30/30/30 3/3/3 39/40/39
f 41/42/41 37/38/37 39/40/39 40/41/40
f 42/43/42 38/39/38 37/38/37 41/42/41
f 44/45/44 41/42/41 40/41/40 43/44/43
f 45/46/45 42/43/42 41/42/41 44/45/44
f 47/49/47 44/47/44 43/44/43 46/48/46
f 48/50/48 45/46/45 44/47/44 47/49/47
