# File produced by Open Asset Import Library (http://www.assimp.sf.net)
# (assimp v3.1.6393133)

mtllib ftilenorm.mtl

# vertex positions
v 3.735877 0.000000 -0.048891
v 3.735877 0.000000 0.201109
v 3.735877 0.000000 0.451109
v 3.735877 0.000000 0.701109
v 3.735877 0.000000 0.951109
v 3.735877 0.000000 1.201109
v 3.735877 0.000000 1.451109
v 3.735877 0.000000 1.701109
v 3.735877 0.000000 1.951109
v 3.985877 0.000000 1.951109
v 4.235877 0.000000 1.951109
v 4.485877 0.000000 1.951109
v 4.735877 0.000000 1.951109
v 4.985878 0.000000 1.951109
v 5.235878 0.000000 1.951109
v 5.485878 0.000000 1.951109
v 5.735878 0.000000 1.951109
v 5.985878 0.000000 1.951109
v 6.235878 0.000000 1.951109
v 6.485878 0.000000 1.951109
v 6.735878 0.000000 1.951109
v 6.985877 0.000000 1.951109
v 7.235877 0.000000 1.951109
v 7.485877 0.000000 1.951109
v 7.735877 0.000000 1.951109
v 7.735877 0.000000 1.701109
v 7.735877 0.000000 1.451109
v 7.735877 0.000000 1.201109
v 7.735877 0.000000 0.951109
v 7.735877 0.000000 0.701109
v 7.735877 0.000000 0.451109
v 7.735877 0.000000 0.201109
v 7.735877 0.000000 -0.048891
v 7.735877 0.000000 -0.298891
v 7.735877 0.000000 -0.548891
v 7.735877 0.000000 -0.798891
v 7.735877 0.000000 -1.048891
v 7.735877 0.000000 -1.298891
v 7.735877 0.000000 -1.548891
v 7.735877 0.000000 -1.798891
v 7.735877 0.000000 -2.048891
v 7.485877 0.000000 -2.048891
v 7.235877 0.000000 -2.048891
v 6.985877 0.000000 -2.048891
v 6.735878 0.000000 -2.048891
v 6.485878 0.000000 -2.048891
v 6.235878 0.000000 -2.048891
v 5.985878 0.000000 -2.048891
v 5.735878 0.000000 -2.048891
v 5.485878 0.000000 -2.048891
v 5.235878 0.000000 -2.048891
v 4.985878 0.000000 -2.048891
v 4.735877 0.000000 -2.048891
v 4.485877 0.000000 -2.048891
v 4.235877 0.000000 -2.048891
v 3.985877 0.000000 -2.048891
v 3.735877 0.000000 -2.048891
v 3.735877 0.000000 -1.798891
v 3.735877 0.000000 -1.548891
v 3.735877 0.000000 -1.298891
v 3.735877 0.000000 -1.048891
v 3.735877 0.000000 -0.798891
v 3.735877 0.000000 -0.548891
v 3.735877 0.000000 -0.298891
v 5.868645 0.103113 -0.181659
v 5.868645 0.103113 -1.916123
v 5.835877 0.003808 -1.948891
v 5.835877 0.003808 -0.148891
v 7.603110 0.103113 -0.181659
v 7.635878 0.003808 -0.148891
v 7.603110 0.103113 -1.916123
v 7.635878 0.003808 -1.948891
v 3.868644 0.103113 1.818341
v 3.868644 0.103113 0.083877
v 3.835877 0.003808 0.051109
v 3.835877 0.003808 1.851109
v 5.603110 0.103113 1.818341
v 5.635877 0.003808 1.851109
v 5.603110 0.103113 0.083877
v 5.635877 0.003808 0.051109
v 5.868645 0.103113 1.818341
v 5.868645 0.103113 0.083877
v 5.835877 0.003808 0.051109
v 5.835877 0.003808 1.851109
v 7.603110 0.103113 1.818341
v 7.635878 0.003808 1.851109
v 7.603110 0.103113 0.083877
v 7.635878 0.003808 0.051109
v 3.868644 0.103113 -0.181659
v 3.868644 0.103113 -1.916123
v 3.835877 0.003808 -1.948891
v 3.835877 0.003808 -0.148891
v 5.603110 0.103113 -0.181659
v 5.635877 0.003808 -0.148891
v 5.603110 0.103113 -1.916123
v 5.635877 0.003808 -1.948891

# UV coordinates
vt 0.280063 0.550136
vt 0.246305 0.550135
vt 0.212547 0.550134
vt 0.178789 0.550132
vt 0.145031 0.550131
vt 0.111274 0.550130
vt 0.077516 0.550128
vt 0.043758 0.550127
vt 0.010000 0.550126
vt 0.010001 0.516368
vt 0.010003 0.482610
vt 0.010004 0.448852
vt 0.010005 0.415094
vt 0.010007 0.381336
vt 0.010008 0.347579
vt 0.010009 0.313821
vt 0.010011 0.280063
vt 0.010012 0.246305
vt 0.010013 0.212547
vt 0.010015 0.178789
vt 0.010016 0.145031
vt 0.010017 0.111274
vt 0.010019 0.077516
vt 0.010020 0.043758
vt 0.010021 0.010000
vt 0.043779 0.010001
vt 0.077537 0.010003
vt 0.111295 0.010004
vt 0.145053 0.010005
vt 0.178810 0.010007
vt 0.212568 0.010008
vt 0.246326 0.010009
vt 0.280084 0.010011
vt 0.313842 0.010012
vt 0.347600 0.010013
vt 0.381358 0.010015
vt 0.415115 0.010016
vt 0.448873 0.010017
vt 0.482631 0.010019
vt 0.516389 0.010020
vt 0.550147 0.010021
vt 0.550145 0.043779
vt 0.550144 0.077537
vt 0.550143 0.111295
vt 0.550142 0.145053
vt 0.550140 0.178810
vt 0.550139 0.212568
vt 0.550138 0.246326
vt 0.550136 0.280084
vt 0.550135 0.313842
vt 0.550134 0.347600
vt 0.550132 0.381358
vt 0.550131 0.415115
vt 0.550130 0.448873
vt 0.550128 0.482631
vt 0.550127 0.516389
vt 0.550126 0.550147
vt 0.516368 0.550145
vt 0.482610 0.550144
vt 0.448852 0.550143
vt 0.415094 0.550142
vt 0.381336 0.550140
vt 0.347579 0.550139
vt 0.313821 0.550138
vt 0.534572 0.882357
vt 0.758062 0.952393
vt 0.758062 0.967190
vt 0.526127 0.894508
vt 0.758061 0.924228
vt 0.981556 0.854206
vt 0.990000 0.866357
vt 0.758060 0.939025
vt 0.534572 0.854188
vt 0.526127 0.866339
vt 0.981556 0.882367
vt 0.990000 0.894518
vt 0.059917 0.858636
vt 0.283420 0.928630
vt 0.283423 0.943428
vt 0.051474 0.870789
vt 0.283402 0.956859
vt 0.506904 0.886861
vt 0.515347 0.899014
vt 0.283400 0.971657
vt 0.059921 0.886796
vt 0.051475 0.898946
vt 0.506901 0.858562
vt 0.515347 0.870712
vt 0.059856 0.802407
vt 0.283707 0.871283
vt 0.283783 0.886080
vt 0.051474 0.814602
vt 0.758057 0.896052
vt 0.981557 0.826046
vt 0.990000 0.838199
vt 0.758055 0.910849
vt 0.534573 0.825995
vt 0.526127 0.838146
vt 0.506834 0.800098
vt 0.515341 0.812205
vt 0.059915 0.830481
vt 0.283429 0.900443
vt 0.283433 0.915240
vt 0.051474 0.842635
vt 0.758071 0.867837
vt 0.981554 0.797776
vt 0.990000 0.809926
vt 0.758073 0.882634
vt 0.534570 0.797836
vt 0.526127 0.809988
vt 0.506899 0.830343
vt 0.515347 0.842492
vt 0.010000 0.793366
vt 0.010045 0.559158
vt 0.244252 0.559203
vt 0.244207 0.793410
vt 0.563015 0.244229
vt 0.562993 0.010022
vt 0.797200 0.010000
vt 0.797222 0.244207
vt 0.254270 0.793415
vt 0.254239 0.559208
vt 0.488446 0.559177
vt 0.488477 0.793384
vt 0.558422 0.793387
vt 0.558385 0.559180
vt 0.792592 0.559142
vt 0.792630 0.793350

# vertex normals
vn 0.000000 1.000000 0.000000
vn -0.949638 0.313349 0.000000
vn -0.949638 0.313349 0.000000
vn -0.949638 0.313349 0.000000
vn 0.000000 0.313349 0.949638
vn 0.000000 0.313349 0.949638
vn 0.000000 0.313349 0.949638
vn 0.949638 0.313349 0.000000
vn 0.949638 0.313349 0.000000
vn 0.949638 0.313349 0.000000
vn 0.000000 0.313349 -0.949638
vn 0.000000 0.313349 -0.949638
vn -0.949638 0.313349 0.000000
vn -0.949638 0.313349 0.000000
vn -0.949638 0.313349 0.000000
vn 0.000000 0.313349 0.949638
vn 0.000000 0.313349 0.949638
vn 0.000000 0.313349 0.949638
vn 0.949638 0.313349 0.000000
vn 0.949638 0.313349 0.000000
vn 0.949638 0.313349 0.000000
vn 0.000000 0.313349 -0.949638
vn 0.000000 0.313349 -0.949638
vn 0.000000 0.313349 -0.949638
vn 0.000000 0.313349 -0.949638
vn -0.949638 0.313349 0.000000
vn 0.000000 0.313349 0.949638
vn 0.949638 0.313349 0.000000
vn 0.949638 0.313349 0.000000
vn 0.000000 0.313349 -0.949638
vn -0.949638 0.313349 0.000000
vn -0.949638 0.313349 0.000000
vn 0.000000 0.313349 0.949638
vn 0.000000 0.313349 0.949638
vn 0.000000 0.313349 -0.949638
vn 0.000000 0.313349 -0.949638

# Mesh
g floortile_low
usemtl lambert1
f 25/25/1 26/26/1 27/27/1 28/28/1 29/29/1 30/30/1 31/31/1 32/32/1 33/33/1 34/34/1 35/35/1 36/36/1 37/37/1 38/38/1 39/39/1 40/40/1 41/41/1 42/42/1 43/43/1 44/44/1 45/45/1 46/46/1 47/47/1 48/48/1 49/49/1 50/50/1 51/51/1 52/52/1 53/53/1 54/54/1 55/55/1 56/56/1 57/57/1 58/58/1 59/59/1 60/60/1 61/61/1 62/62/1 63/63/1 64/64/1 1/1/1 2/2/1 3/3/1 4/4/1 5/5/1 6/6/1 7/7/1 8/8/1 9/9/1 10/10/1 11/11/1 12/12/1 13/13/1 14/14/1 15/15/1 16/16/1 17/17/1 18/18/1 19/19/1 20/20/1 21/21/1 22/22/1 23/23/1 24/24/1
f 65/65/2 66/66/3 67/67/4 68/68/2
f 70/72/7 69/69/5 65/70/6 68/71/6
f 70/72/10 72/74/8 71/73/8 69/69/9
f 71/75/12 72/76/11 67/67/12 66/66/11
f 73/77/13 74/78/14 75/79/15 76/80/15
f 78/84/17 77/81/16 73/82/17 76/83/18
f 78/84/20 80/86/21 79/85/19 77/81/20
f 79/87/23 80/88/24 75/79/25 74/78/22
f 81/89/26 82/90/26 83/91/26 84/92/26
f 86/96/27 85/93/17 81/94/27 84/95/17
f 86/96/29 88/98/28 87/97/28 85/93/28
f 87/99/30 88/100/23 83/91/22 82/90/22
f 89/101/31 90/102/32 91/103/31 92/104/31
f 94/108/34 93/105/7 89/106/6 92/107/33
f 94/108/20 96/110/20 95/109/20 93/105/20
f 95/111/35 96/112/12 91/103/36 90/102/12
f 69/114/1 71/115/1 66/116/1 65/113/1
f 77/118/1 79/119/1 74/120/1 73/117/1
f 85/122/1 87/123/1 82/124/1 81/121/1
f 93/126/1 95/127/1 90/128/1 89/125/1
